<svg xmlns="http://www.w3.org/2000/svg" width="64" height="64" viewBox="0 0 64 64" fill="none">
  <rect width="64" height="64" rx="12" fill="#F4F5F0"/>
  <rect x="4" y="16" width="18.6667" height="32" fill="#008C45"/>
  <rect x="22.6667" y="16" width="18.6667" height="32" fill="#F4F5F0"/>
  <rect x="41.3333" y="16" width="18.6667" height="32" fill="#CD212A"/>
  <path d="M32 12C33.1046 12 34 11.1046 34 10C34 8.89543 33.1046 8 32 8C30.8954 8 30 8.89543 30 10C30 11.1046 30.8954 12 32 12Z" fill="#008C45"/>
  <path d="M32 56C33.1046 56 34 55.1046 34 54C34 52.8954 33.1046 52 32 52C30.8954 52 30 52.8954 30 54C30 55.1046 30.8954 56 32 56Z" fill="#CD212A"/>
  <path d="M32 34C36.4183 34 40 30.4183 40 26C40 21.5817 36.4183 18 32 18C27.5817 18 24 21.5817 24 26C24 30.4183 27.5817 34 32 34Z" fill="#F2D680"/>
  <path d="M32 30C34.2091 30 36 28.2091 36 26C36 23.7909 34.2091 22 32 22C29.7909 22 28 23.7909 28 26C28 28.2091 29.7909 30 32 30Z" fill="#F4F5F0"/>
</svg> 