<svg width="32" height="32" viewBox="0 0 32 32" fill="none" xmlns="http://www.w3.org/2000/svg">
  <rect width="32" height="32" rx="16" fill="#1A5276"/>
  <rect x="4" y="22" width="8" height="6" fill="#008C45"/>
  <rect x="12" y="22" width="8" height="6" fill="#F4F5F0"/>
  <rect x="20" y="22" width="8" height="6" fill="#CD212A"/>
  <path d="M16 6C14.8954 6 14 6.89543 14 8V18C14 19.1046 14.8954 20 16 20C17.1046 20 18 19.1046 18 18V8C18 6.89543 17.1046 6 16 6Z" fill="#F4F5F0"/>
  <path d="M11 10C9.89543 10 9 10.8954 9 12V18C9 19.1046 9.89543 20 11 20C12.1046 20 13 19.1046 13 18V12C13 10.8954 12.1046 10 11 10Z" fill="#F4F5F0"/>
  <path d="M21 10C19.8954 10 19 10.8954 19 12V18C19 19.1046 19.8954 20 21 20C22.1046 20 23 19.1046 23 18V12C23 10.8954 22.1046 10 21 10Z" fill="#F4F5F0"/>
</svg> 